#!OML:ASF F:\VICON\USERDATA\INSTALL\rory3\rory3.ASF
:FULLY-SPECIFIED
:DEGREES
89
root -4.984769363113112 18.097542697790566 -3.552237135485726 -166.51005404072345 -5.745302470159196 -174.82943527774881
lfemur -28.950799205406177 -17.482421290150796 -14.842697514905886
ltibia 31.19472946018973
lfoot 21.423739102057084 -47.974630076859206
ltoes 39.68678089684023
rfemur 18.89941823230137 -11.311438754432487 21.955867845770932
rtibia 6.946444952908799
rfoot 34.14920908702503 -34.66681202268713
rtoes 32.920017547269936
lowerback -12.176683145681233 14.48284712034095 13.528424620024253
upperback -16.891873073245062 17.77148099123333 -0.24301336753404734
thorax -6.903424180595752 6.182764989127145 -5.578204690842184
lowerneck -9.396863556597783 -18.452158940529557 -5.690576724081872
upperneck 16.148473829353247 -26.83697248008443 3.021937623606717
head 7.445599381396061 -13.080298889237598 -0.9811282779602406
lclavicle -5.0242982669125455e-15 -9.76024645423484e-15
lhumerus 65.73696880976476 10.372953099190198 56.92235127233815
lradius 71.5312636499333
lwrist 16.109385631840198
lhand -15.934831748976338 31.08680268520787
lfingers 7.125020000000001
lthumb -166.3442480377403 -187.69670405266254
rclavicle -5.017488976551286e-15 -1.02122986449041e-14
rhumerus 98.47573591714928 18.871062124635174 -58.90635594166753
rradius 33.30631225199167
rwrist -13.95977208560357
rhand -38.89280753627427 23.74416146543946
rfingers 7.125020000000001
rthumb -15.882310159589723 -4.235620325285007
90
root -4.962135510873281 18.113222663882468 -3.4900494699865536 -165.65973794554083 -5.142899393859196 -174.47877760826373
lfemur -28.89923461570961 -17.148946510070644 -14.890392935953638
ltibia 31.21846927419449
lfoot 21.041911563374242 -47.59268170232279
ltoes 38.82481948403698
rfemur 18.79752734673683 -11.16546120642821 21.934069052135612
rtibia 6.989498756957353
rfoot 33.95562396739366 -34.455148847158455
rtoes 32.8495968002732
lowerback -11.824222630293695 14.260840982274454 13.347590869839813
upperback -16.331502397274143 17.375915763733953 -0.11720237613384632
thorax -6.603966291440868 5.9356020422871865 -5.398458716208091
lowerneck -9.931504010840772 -17.81445085128112 -5.399611157755054
upperneck 16.27595110105107 -26.022330214602114 2.729947247153908
head 7.507717740026193 -12.717528581598216 -1.1027783275285468
lclavicle -5.028538482948059e-15 -9.758177345489144e-15
lhumerus 65.35722390652737 9.467004848164294 56.807408519510375
lradius 70.09599940530052
lwrist 16.77688411390059
lhand -14.57452825790388 32.08749649476747
lfingers 7.125020000000001
lthumb -165.5217934886413 -185.53636726597995
rclavicle -5.022642621795725e-15 -1.021671105416415e-14
rhumerus 97.70415506817939 18.928391208109325 -59.5731751274033
rradius 32.27609669698953
rwrist -16.800431221799784
rhand -36.64307533066799 21.243044342678367
rfingers 7.125020000000001
rthumb -13.9505821140928 -6.877738592784092
91
root -4.944848432837293 18.125704603756624 -3.4253760488488942 -165.20910409055574 -4.330563871397381 -174.0171993127301
lfemur -28.849015181240016 -16.78778013961889 -14.778437818263665
ltibia 31.08752917219722
lfoot 20.887173935341522 -46.97738184598109
ltoes 38.531294641665355
rfemur 18.782864155322606 -10.955031938594225 22.01197503951505
rtibia 7.288374934541295
rfoot 33.623996180912776 -34.26168960840663
rtoes 33.0827537028376
lowerback -11.42541194805363 13.98556022538654 13.210337526757874
upperback -15.62256873758744 16.825653572100542 0.10379236305500594
thorax -6.177190451052973 5.709644008013441 -5.1142849933842305
lowerneck -10.796962566678024 -17.115507096191152 -4.8815540397541595
upperneck 16.37779896709091 -24.95119399653831 2.356174996004591
head 7.515781714246605 -12.229512492256188 -1.2244386069763409
lclavicle -5.026711022657464e-15 -9.771046308664793e-15
lhumerus 64.52410850090303 8.603393744416067 56.52733794909655
lradius 68.5893550293261
lwrist 17.70072441639303
lhand -13.410288251507346 33.4177152258129
lfingers 7.125020000000001
lthumb -164.8490332063081 -180.9041205495787
rclavicle -5.014628116425529e-15 -1.0210046359173783e-14
rhumerus 96.77680206209425 18.755543433692942 -60.11972899733289
rradius 31.775697882559577
rwrist -19.89511460918727
rhand -34.57875261992152 19.041476990185043
rfingers 7.125020000000001
rthumb -12.09674619711343 -9.502124795838231
92
root -4.919717596379483 18.140227620063968 -3.3796507125527917 -164.88579465800092 -3.7783844825955626 -174.13083733037047
lfemur -28.765937809095696 -16.40955595748502 -14.657977339659267
ltibia 30.881211913751933
lfoot 20.77401414686841 -46.390101255726925
ltoes 38.525870709994166
rfemur 18.744094069984136 -10.750140605187848 22.117920856042232
rtibia 7.805876732692553
rfoot 33.23570165595992 -33.73503459439753
rtoes 33.04653859424177
lowerback -10.991150103376667 13.343336592538192 13.064808959097762
upperback -14.953809911883203 16.332222722596928 0.4339832039837024
thorax -5.927588507802633 5.658258264195371 -4.795219717392382
lowerneck -11.21051387450916 -16.146177609159587 -4.419463566869426
upperneck 16.244043134238865 -23.764674600025835 1.9860556899755393
head 7.388987569393768 -11.61517412691107 -1.2492772245917234
lclavicle -5.023641445605486e-15 -9.783611592796995e-15
lhumerus 63.8591281222008 7.74580613096807 56.35117817659094
lradius 66.95992829391888
lwrist 18.376072833847235
lhand -12.58869615948021 34.312374111426465
lfingers 7.125020000000001
lthumb -164.40009227297134 -174.0666727318042
rclavicle -5.0156959862520695e-15 -1.0210928561422078e-14
rhumerus 95.72354156789002 18.763180477908122 -60.74148938334804
rradius 31.625647161517243
rwrist -22.710073752742566
rhand -32.975874197380676 17.476706593309373
rfingers 7.125020000000001
rthumb -10.45970544179766 -11.568346932953949
